# Blender v2.57 (sub 1) OBJ File: ''
# www.blender.org
mtllib mirror.mtl
o Cube
v 1.692577 -1.692577 -1.692576
v 1.692577 -1.692577 1.692577
v -8.670033 -1.692577 1.692576
v -8.670033 -1.692577 -1.692577
v 1.692577 1.692577 -1.692576
v 1.692576 1.692577 1.692577
v -8.670034 1.692577 1.692576
v -8.670033 1.692577 -1.692577
vt 0.753767 0.500000
vt 0.753767 0.000000
vt 0.000000 0.000000
vt 0.000000 0.500000
vt 0.753767 1.000000
vt 0.000000 1.000000
vt 0.507534 1.000000
vt 0.507534 0.500000
vt 1.000000 1.000000
vt 1.000000 0.500000
vn 0.577349 -0.577349 -0.577349
vn 0.577349 -0.577349 0.577349
vn -0.577349 -0.577349 0.577349
vn -0.577349 -0.577349 -0.577349
vn 0.577349 0.577349 -0.577349
vn -0.577349 0.577349 -0.577349
vn -0.577349 0.577349 0.577349
vn 0.577349 0.577349 0.577349
usemtl Material_102_0720.JPG
s 1
f 1/1/1 2/2/2 3/3/3
f 1/1/1 3/3/3 4/4/4
f 5/5/5 8/6/6 7/4/7
f 5/5/5 7/4/7 6/1/8
f 1/1/1 5/5/5 6/7/8
f 1/1/1 6/7/8 2/8/2
f 2/1/2 6/5/8 7/6/7
f 2/1/2 7/6/7 3/4/3
f 3/1/3 7/5/7 8/9/6
f 3/1/3 8/9/6 4/10/4
f 5/1/5 1/2/1 4/3/4
f 5/1/5 4/3/4 8/4/6
